<?xml version="1.0" encoding="UTF-8"?>
<!DOCTYPE svg PUBLIC "-//W3C//DTD SVG 1.1//EN" "http://www.w3.org/Graphics/SVG/1.1/DTD/svg11.dtd">
<svg xmlns="http://www.w3.org/2000/svg" version="1.1" width="412px" height="572px" style="shape-rendering:geometricPrecision; text-rendering:geometricPrecision; image-rendering:optimizeQuality; fill-rule:evenodd; clip-rule:evenodd" xmlns:xlink="http://www.w3.org/1999/xlink">
<g><path style="opacity:0.937" fill="#ffcc00" d="M 169.5,-0.5 C 172.5,-0.5 175.5,-0.5 178.5,-0.5C 181.022,1.36056 183.522,3.36056 186,5.5C 186.667,49.5 186.667,93.5 186,137.5C 184.167,139.333 182.333,141.167 180.5,143C 156.147,149.371 135.98,162.205 120,181.5C 88.5834,223.497 77.9167,270.497 88,322.5C 92.6678,342.159 100.334,360.492 111,377.5C 110.559,386.482 109.892,395.482 109,404.5C 107.062,405.86 105.396,405.527 104,403.5C 72.6807,360.309 60.3473,311.976 67,258.5C 69.1724,242.987 73.1724,227.987 79,213.5C 101.147,192.194 119.147,167.861 133,140.5C 143.279,132.396 154.779,126.73 167.5,123.5C 167.333,83.8319 167.5,44.1653 168,4.5C 168.352,2.75251 168.852,1.08584 169.5,-0.5 Z"/></g>
<g><path style="opacity:0.938" fill="#ffcc00" d="M 226.5,58.5 C 230.514,58.3345 234.514,58.5012 238.5,59C 243.904,65.9882 248.07,73.4882 251,81.5C 250.439,82.0219 249.772,82.3552 249,82.5C 245.559,81.6178 242.059,81.2845 238.5,81.5C 238.333,95.504 238.5,109.504 239,123.5C 252.91,127.789 265.577,134.455 277,143.5C 280.095,153.302 281.762,163.302 282,173.5C 280.951,174.517 279.784,174.684 278.5,174C 263.553,158.521 245.553,148.188 224.5,143C 223.333,141.833 222.167,140.667 221,139.5C 219.761,133.944 219.094,128.278 219,122.5C 218.333,103.833 218.333,85.1667 219,66.5C 220.858,63.0217 223.358,60.3551 226.5,58.5 Z"/></g>
<g><path style="opacity:0.935" fill="#ffcc00" d="M 193.5,162.5 C 204.058,159.394 210.391,163.06 212.5,173.5C 212.774,179.391 210.107,183.224 204.5,185C 183.972,185.935 166.306,193.435 151.5,207.5C 145.926,213.572 140.926,220.072 136.5,227C 123.265,230.094 118.432,224.927 122,211.5C 133.015,193.222 148.182,179.388 167.5,170C 176.024,166.54 184.691,164.04 193.5,162.5 Z"/></g>
<g><path style="opacity:0.94" fill="#ffcc00" d="M 194.5,207.5 C 215.344,205.83 232.844,212.497 247,227.5C 265.726,251.811 271.726,279.144 265,309.5C 259.2,333.285 245.366,350.452 223.5,361C 215.734,363.954 207.734,364.954 199.5,364C 192.97,358.995 191.804,352.828 196,345.5C 196.903,344.299 198.069,343.465 199.5,343C 218.213,341.573 232.046,332.74 241,316.5C 253.605,289.716 250.438,265.05 231.5,242.5C 212.954,226.169 194.287,225.835 175.5,241.5C 162.948,255.311 156.781,271.644 157,290.5C 153.168,298.091 147.835,299.425 141,294.5C 138.606,288.724 137.939,282.724 139,276.5C 141.728,247.475 155.561,225.975 180.5,212C 185.254,210.358 189.921,208.858 194.5,207.5 Z M 202.5,274.5 C 212.267,278.91 214.267,285.577 208.5,294.5C 202.712,298.411 198.212,297.078 195,290.5C 193.307,283.07 195.807,277.736 202.5,274.5 Z"/></g>
<g><path style="opacity:0.939" fill="#ffcc00" d="M 356.5,221.5 C 358.39,221.297 359.89,221.963 361,223.5C 372.266,240.355 382.266,258.022 391,276.5C 391.667,308.833 391.667,341.167 391,373.5C 378.3,396.853 365.633,420.187 353,443.5C 352.667,472.833 352.333,502.167 352,531.5C 346.892,536.614 341.225,540.948 335,544.5C 334.228,544.355 333.561,544.022 333,543.5C 332.333,508.833 332.333,474.167 333,439.5C 345.789,413.924 359.122,388.591 373,363.5C 373.833,330.162 373.667,296.828 372.5,263.5C 356.743,253.572 351.409,239.572 356.5,221.5 Z"/></g>
<g><path style="opacity:0.933" fill="#ffcc00" d="M 109.5,251.5 C 114.855,250.345 119.022,252.012 122,256.5C 121.787,270.495 121.787,284.495 122,298.5C 123.126,308.881 125.293,319.047 128.5,329C 125.811,335.546 122.978,342.046 120,348.5C 119.439,349.022 118.772,349.355 118,349.5C 114.441,346.738 112.108,343.072 111,338.5C 101.701,312.016 99.7013,285.016 105,257.5C 106.332,255.34 107.832,253.34 109.5,251.5 Z"/></g>
<g><path style="opacity:0.942" fill="#ffcc00" d="M 196.5,252.5 C 212.367,251.176 223.201,257.843 229,272.5C 231.665,284.202 230.665,295.536 226,306.5C 215.125,320.827 201.958,323.327 186.5,314C 175.798,302.033 172.631,288.199 177,272.5C 181.021,263.313 187.521,256.647 196.5,252.5 Z M 202.5,274.5 C 195.807,277.736 193.307,283.07 195,290.5C 198.212,297.078 202.712,298.411 208.5,294.5C 214.267,285.577 212.267,278.91 202.5,274.5 Z"/></g>
<g><path style="opacity:0.922" fill="#ffcc00" d="M 336.5,272.5 C 337.822,272.33 338.989,272.663 340,273.5C 342.394,301.071 338.728,327.738 329,353.5C 324.656,357.128 319.99,357.462 315,354.5C 313.162,351.963 312.329,349.129 312.5,346C 315.052,335.197 317.552,324.363 320,313.5C 320.333,309.5 320.667,305.5 321,301.5C 329.842,293.816 335.009,284.149 336.5,272.5 Z"/></g>
<g><path style="opacity:0.933" fill="#ffcc00" d="M 288.5,276.5 C 290.144,276.286 291.644,276.62 293,277.5C 294.818,284.973 298.151,291.64 303,297.5C 300.799,338.748 283.299,371.581 250.5,396C 238.813,403.23 226.147,407.23 212.5,408C 207.333,402.167 202.167,396.333 197,390.5C 196.333,389.5 196.333,388.5 197,387.5C 220.447,387.137 240.447,378.804 257,362.5C 275.876,340.052 285.209,314.052 285,284.5C 285.368,281.435 286.535,278.768 288.5,276.5 Z"/></g>
<g><path style="opacity:0.94" fill="#ffcc00" d="M 29.5,278.5 C 30.8221,278.33 31.9887,278.663 33,279.5C 33.3333,308.167 33.6667,336.833 34,365.5C 47.0111,389.239 60.0111,412.905 73,436.5C 73.6667,467.5 73.6667,498.5 73,529.5C 72.4387,530.022 71.772,530.355 71,530.5C 65.3879,526.559 60.0546,522.226 55,517.5C 54.6667,493.5 54.3333,469.5 54,445.5C 41.2545,421.008 28.2545,396.675 15,372.5C 14.3333,350.5 14.3333,328.5 15,306.5C 19.5911,296.983 24.4244,287.65 29.5,278.5 Z"/></g>
<g><path style="opacity:0.926" fill="#ffcc00" d="M 294.5,379.5 C 306.597,379.785 310.763,385.785 307,397.5C 292.541,417.289 274.374,432.789 252.5,444C 250.833,444.667 249.167,444.667 247.5,444C 243.701,439.199 239.534,434.699 235,430.5C 234.333,429.167 234.333,427.833 235,426.5C 247.61,421.946 259.11,415.446 269.5,407C 278.919,398.434 287.252,389.267 294.5,379.5 Z"/></g>
<g><path style="opacity:0.915" fill="#ffcc00" d="M 411.5,399.5 C 411.5,405.167 411.5,410.833 411.5,416.5C 407.203,443.278 398.203,468.445 384.5,492C 383.216,492.684 382.049,492.517 381,491.5C 380.333,478.5 380.333,465.5 381,452.5C 389.46,434.915 398.46,417.582 408,400.5C 409.011,399.663 410.178,399.33 411.5,399.5 Z"/></g>
<g><path style="opacity:0.89" fill="#ffcc00" d="M -0.5,407.5 C 0.822066,407.33 1.98873,407.663 3,408.5C 10.0789,422.326 17.4122,435.992 25,449.5C 26.5529,458.772 26.8862,468.105 26,477.5C 24.0624,478.86 22.3957,478.527 21,476.5C 10.754,458.916 3.5873,440.249 -0.5,420.5C -0.5,416.167 -0.5,411.833 -0.5,407.5 Z"/></g>
<g><path style="opacity:0.935" fill="#ffcc00" d="M 114.5,457.5 C 116.144,457.286 117.644,457.62 119,458.5C 122.276,467.661 125.942,476.661 130,485.5C 130.667,510.167 130.667,534.833 130,559.5C 123.565,559.981 117.565,558.315 112,554.5C 111.333,524.167 111.333,493.833 112,463.5C 112.938,461.512 113.772,459.512 114.5,457.5 Z"/></g>
<g><path style="opacity:0.927" fill="#ffcc00" d="M 269.5,467.5 C 284.164,464.98 294.664,470.313 301,483.5C 307.558,499.951 305.058,514.785 293.5,528C 287.225,533.644 279.892,535.644 271.5,534C 270.941,533.275 270.608,532.442 270.5,531.5C 272.643,524.928 274.477,518.261 276,511.5C 285.917,507.913 288.084,501.58 282.5,492.5C 280.207,490.77 277.707,489.437 275,488.5C 273.587,483.261 271.587,478.261 269,473.5C 268.322,471.402 268.489,469.402 269.5,467.5 Z"/></g>
<g><path style="opacity:0.851" fill="#ffcc00" d="M 177.5,571.5 C 174.833,571.5 172.167,571.5 169.5,571.5C 167.582,565.312 167.082,558.979 168,552.5C 169.938,551.14 171.604,551.473 173,553.5C 175.248,556.328 177.248,559.328 179,562.5C 179.932,565.823 179.432,568.823 177.5,571.5 Z"/></g>
</svg>
