<?xml version="1.0" encoding="UTF-8"?>
<!DOCTYPE svg PUBLIC "-//W3C//DTD SVG 1.1//EN" "http://www.w3.org/Graphics/SVG/1.1/DTD/svg11.dtd">
<svg xmlns="http://www.w3.org/2000/svg" version="1.1" width="412px" height="572px" style="shape-rendering:geometricPrecision; text-rendering:geometricPrecision; image-rendering:optimizeQuality; fill-rule:evenodd; clip-rule:evenodd" xmlns:xlink="http://www.w3.org/1999/xlink">
<g><path style="opacity:0.916" fill="rgb(202,0,0)" d="M 161.5,-0.5 C 166.833,-0.5 172.167,-0.5 177.5,-0.5C 183.253,4.22264 189.253,8.72264 195.5,13C 198.003,14.7839 198.003,16.4506 195.5,18C 182.187,20.3227 170.853,26.3227 161.5,36C 160.207,36.49 158.873,36.6567 157.5,36.5C 156.793,28.4711 155.793,20.4711 154.5,12.5C 155.012,7.13944 157.346,2.80611 161.5,-0.5 Z"/></g>
<g><path style="opacity:0.963" fill="rgb(202,0,0)" d="M 200.5,38.5 C 223.075,39.2445 236.075,50.7445 239.5,73C 236.089,100.89 220.422,112.557 192.5,108C 173.704,100.267 165.871,86.0999 169,65.5C 174.266,50.0462 184.766,41.0462 200.5,38.5 Z"/></g>
<g><path style="opacity:0.908" fill="rgb(202,0,0)" d="M 256.5,95.5 C 258.124,95.3601 259.29,96.0267 260,97.5C 273.311,126.41 281.144,156.744 283.5,188.5C 282.325,188.719 281.325,188.386 280.5,187.5C 267.653,165.135 254.82,142.801 242,120.5C 241.349,118.765 241.515,117.098 242.5,115.5C 248.653,109.857 253.319,103.19 256.5,95.5 Z"/></g>
<g><path style="opacity:0.961" fill="rgb(202,0,0)" d="M 156.5,112.5 C 161.937,113.712 166.604,116.545 170.5,121C 186.041,131.167 202.541,133.667 220,128.5C 221.767,129.34 223.101,130.673 224,132.5C 239,158.833 254,185.167 269,211.5C 269.667,213.5 269.667,215.5 269,217.5C 253.544,232.532 248.211,250.532 253,271.5C 261.357,297.69 279.19,312.357 306.5,315.5C 337.747,313.42 357.413,297.253 365.5,267C 367.778,241.39 357.945,221.89 336,208.5C 335.351,205.082 336.851,203.749 340.5,204.5C 345.071,204.56 348.571,206.56 351,210.5C 369.068,235.288 384.068,261.954 396,290.5C 396.028,298.499 397.195,306.499 399.5,314.5C 399.392,315.442 399.059,316.275 398.5,317C 370.5,333 342.5,349 314.5,365C 313.5,365.667 312.5,365.667 311.5,365C 290.313,343.924 266.313,340.258 239.5,354C 228.498,361.604 220.331,371.438 215,383.5C 212.999,389.678 212.166,396.012 212.5,402.5C 208.497,402.029 205.331,400.029 203,396.5C 195.557,387.723 188.891,378.39 183,368.5C 183.044,350.942 177.044,335.942 165,323.5C 162.458,311.288 160.791,298.954 160,286.5C 153.459,293.372 147.293,300.539 141.5,308C 123.123,304.575 106.123,307.909 90.5,318C 65.0297,341.794 61.3631,368.627 79.5,398.5C 87.4129,408.433 97.4129,415.099 109.5,418.5C 111.27,432.683 113.937,446.683 117.5,460.5C 113.684,459.599 110.017,458.099 106.5,456C 100.388,454.097 94.2218,452.597 88,451.5C 80.8461,452.471 73.6794,453.304 66.5,454C 51.3927,426.954 35.8927,400.12 20,373.5C 18.8495,371.246 18.5162,368.913 19,366.5C 31.135,354.366 37.3017,339.866 37.5,323C 36.661,317.642 35.661,312.309 34.5,307C 34.8333,306.167 35.1667,305.333 35.5,304.5C 62.6289,289.2 89.6289,273.7 116.5,258C 118.833,257.333 121.167,257.333 123.5,258C 137.828,273.11 155.161,278.776 175.5,275C 197.996,269.491 212.829,255.657 220,233.5C 225.288,201.237 213.121,178.403 183.5,165C 155.443,157.133 132.943,164.966 116,188.5C 107.347,203.196 105.181,218.863 109.5,235.5C 109.167,236.5 108.833,237.5 108.5,238.5C 83.4678,253.014 58.4678,267.514 33.5,282C 32.2068,282.49 30.8734,282.657 29.5,282.5C 31.2877,277.193 33.7877,272.193 37,267.5C 54.7397,241.747 74.7397,217.747 97,195.5C 116.525,173.142 132.025,148.142 143.5,120.5C 148.065,118.059 152.398,115.392 156.5,112.5 Z"/></g>
<g><path style="opacity:0.962" fill="rgb(202,0,0)" d="M 154.5,184.5 C 174.586,181.898 189.086,189.565 198,207.5C 202.718,229.683 194.884,245.183 174.5,254C 152.788,257.901 137.955,249.734 130,229.5C 126.427,207.949 134.593,192.949 154.5,184.5 Z"/></g>
<g><path style="opacity:0.872" fill="rgb(202,0,0)" d="M 282.5,234.5 C 283.5,234.5 284.5,234.5 285.5,234.5C 286.01,253.382 289.344,271.715 295.5,289.5C 292.575,289.54 289.909,288.707 287.5,287C 270.985,270.632 269.318,253.132 282.5,234.5 Z"/></g>
<g><path style="opacity:0.782" fill="rgb(202,0,0)" d="M 335.5,238.5 C 336.822,238.33 337.989,238.663 339,239.5C 346.12,252.046 346.286,264.713 339.5,277.5C 338.5,277.5 337.5,277.5 336.5,277.5C 337.892,264.464 337.559,251.464 335.5,238.5 Z"/></g>
<g><path style="opacity:0.785" fill="rgb(202,0,0)" d="M 11.5,316.5 C 12.8333,316.5 14.1667,316.5 15.5,316.5C 16.7205,327.955 14.0538,338.289 7.5,347.5C 6.15017,348.95 4.4835,349.617 2.5,349.5C 4.8933,338.322 7.8933,327.322 11.5,316.5 Z"/></g>
<g><path style="opacity:0.921" fill="rgb(202,0,0)" d="M 118.5,328.5 C 121.5,328.5 124.5,328.5 127.5,328.5C 122.465,339.913 117.965,351.58 114,363.5C 111.577,373.037 109.911,382.703 109,392.5C 108.107,393.081 107.107,393.415 106,393.5C 102.748,391.592 99.7478,389.259 97,386.5C 87.5454,372.482 87.0454,358.149 95.5,343.5C 101.387,335.585 109.054,330.585 118.5,328.5 Z"/></g>
<g><path style="opacity:0.961" fill="rgb(202,0,0)" d="M 411.5,349.5 C 411.5,361.5 411.5,373.5 411.5,385.5C 374.481,391.843 356.647,413.843 358,451.5C 359.349,455.366 359.515,459.199 358.5,463C 332.874,476.813 307.541,491.146 282.5,506C 280.975,507.009 279.308,507.509 277.5,507.5C 277.464,500.08 276.631,492.747 275,485.5C 272.028,477.559 268.528,469.893 264.5,462.5C 264.818,461.353 265.484,460.519 266.5,460C 293.541,459.581 312.375,447.081 323,422.5C 324.614,417.392 325.78,412.225 326.5,407C 326.049,399.547 325.215,392.047 324,384.5C 348.751,369.874 373.585,355.374 398.5,341C 401.971,338.928 405.638,337.428 409.5,336.5C 409.624,341.049 410.291,345.382 411.5,349.5 Z"/></g>
<g><path style="opacity:0.961" fill="rgb(202,0,0)" d="M 263.5,367.5 C 290.212,366.953 304.212,379.786 305.5,406C 299.688,431.082 284.021,441.416 258.5,437C 240.452,429.08 232.618,415.247 235,395.5C 239.157,380.507 248.657,371.174 263.5,367.5 Z"/></g>
<g><path style="opacity:0.929" fill="rgb(202,0,0)" d="M -0.5,383.5 C 1.07442,383.937 2.24109,384.937 3,386.5C 17.7774,412.392 32.2774,438.392 46.5,464.5C 46.3333,465.5 46.1667,466.5 46,467.5C 40.1437,472.707 35.8104,479.04 33,486.5C 31.0624,487.86 29.3957,487.527 28,485.5C 13.6948,464.075 4.19477,440.742 -0.5,415.5C -0.5,404.833 -0.5,394.167 -0.5,383.5 Z"/></g>
<g><path style="opacity:0.924" fill="rgb(202,0,0)" d="M 405.5,407.5 C 407.167,407.5 408.833,407.5 410.5,407.5C 408.485,429.227 403.485,450.227 395.5,470.5C 393.071,470.415 391.071,469.415 389.5,467.5C 380.755,457.869 377.589,446.535 380,433.5C 383.999,420.335 392.499,411.668 405.5,407.5 Z"/></g>
<g><path style="opacity:0.958" fill="rgb(202,0,0)" d="M 77.5,473.5 C 105.326,471.848 119.993,484.681 121.5,512C 120.171,520.154 116.838,527.321 111.5,533.5C 107.279,536.42 102.945,539.253 98.5,542C 93.8887,543.007 89.5554,542.34 85.5,540C 73.1352,531.974 61.6352,522.807 51,512.5C 49.8083,492.928 58.6417,479.928 77.5,473.5 Z"/></g>
<g><path style="opacity:0.946" fill="rgb(202,0,0)" d="M 368.5,480.5 C 370.288,480.215 371.955,480.548 373.5,481.5C 377.006,484.506 380.339,487.673 383.5,491C 366.307,520.192 342.641,542.526 312.5,558C 303.88,562.313 294.88,565.48 285.5,567.5C 288.385,555.046 288.052,542.713 284.5,530.5C 284.833,529.833 285.167,529.167 285.5,528.5C 313.066,512.221 340.733,496.221 368.5,480.5 Z"/></g>
<g><path style="opacity:0.928" fill="rgb(202,0,0)" d="M 176.5,571.5 C 171.167,571.5 165.833,571.5 160.5,571.5C 147.669,566.865 134.669,562.365 121.5,558C 119.717,556.933 119.217,555.433 120,553.5C 133.117,543.403 140.284,530.069 141.5,513.5C 142.822,513.33 143.989,513.663 145,514.5C 153.22,528.051 162.22,541.051 172,553.5C 175.085,559.263 176.585,565.263 176.5,571.5 Z"/></g>
<g><path style="opacity:0.716" fill="rgb(202,0,0)" d="M 262.5,550.5 C 263.5,550.5 264.5,550.5 265.5,550.5C 265.02,557.427 262.853,563.761 259,569.5C 254.154,571.323 252.488,569.656 254,564.5C 257.609,560.277 260.443,555.61 262.5,550.5 Z"/></g>
</svg>
